<mxfile host="65bd71144e">
    <diagram id="DolruIjGNjRQ6eBEmS0-" name="Page-1">
        <mxGraphModel dx="796" dy="782" grid="1" gridSize="10" guides="1" tooltips="1" connect="1" arrows="1" fold="1" page="1" pageScale="1" pageWidth="827" pageHeight="1169" math="0" shadow="0">
            <root>
                <mxCell id="0"/>
                <mxCell id="1" parent="0"/>
                <mxCell id="86" value="&lt;b&gt;user_interface&lt;/b&gt;&lt;br&gt;&lt;br&gt;&lt;br&gt;Обращается к&amp;nbsp; юзеру для выбора режима&lt;br&gt;&lt;br&gt;1) Вывод всей инф&lt;br&gt;2) Вывод всех ДР&lt;br&gt;3) Вывод успеваемости&lt;br&gt;4) Вывод пола&lt;br&gt;&lt;br&gt;&lt;br&gt;Возвращает выбор юзера" style="whiteSpace=wrap;html=1;aspect=fixed;" parent="1" vertex="1">
                    <mxGeometry x="50" y="150" width="200" height="200" as="geometry"/>
                </mxCell>
                <mxCell id="87" value="&lt;b&gt;База данных класса:&lt;/b&gt;&lt;br&gt;&lt;br&gt;&lt;br&gt;В ней через , хранятся ID, ФИО, ДР, успеваемость, пол ученика" style="rounded=0;whiteSpace=wrap;html=1;" parent="1" vertex="1">
                    <mxGeometry x="410" y="40" width="130" height="120" as="geometry"/>
                </mxCell>
                <mxCell id="88" value="Обработчик файла&lt;br&gt;&lt;br&gt;1) Получает данные (выбор юзера)&lt;br&gt;2) Получаете исходный список&lt;br&gt;3) Формирует необходимый список&lt;br&gt;4) Отдает список" style="whiteSpace=wrap;html=1;aspect=fixed;" parent="1" vertex="1">
                    <mxGeometry x="320" y="370" width="160" height="160" as="geometry"/>
                </mxCell>
                <mxCell id="89" value="&lt;b&gt;Редактор файла:&lt;/b&gt;&lt;br&gt;&lt;br&gt;&lt;div style=&quot;text-align: justify&quot;&gt;&lt;span&gt;1) Считывает инф из БД&lt;/span&gt;&lt;/div&gt;&lt;div style=&quot;text-align: justify&quot;&gt;&lt;span&gt;2) Кладет в перем&lt;/span&gt;&lt;/div&gt;&lt;div style=&quot;text-align: justify&quot;&gt;&lt;span&gt;3) Получает список для сохр&lt;/span&gt;&lt;/div&gt;&lt;div style=&quot;text-align: justify&quot;&gt;&lt;span&gt;4) Сохраняет полученную инф в новый файл&lt;/span&gt;&lt;/div&gt;" style="whiteSpace=wrap;html=1;aspect=fixed;" parent="1" vertex="1">
                    <mxGeometry x="610" y="140" width="160" height="160" as="geometry"/>
                </mxCell>
                <mxCell id="90" value="" style="endArrow=classic;html=1;rounded=0;entryX=-0.008;entryY=0.551;entryDx=0;entryDy=0;entryPerimeter=0;" parent="1" target="88" edge="1">
                    <mxGeometry width="50" height="50" relative="1" as="geometry">
                        <mxPoint x="150" y="350" as="sourcePoint"/>
                        <mxPoint x="460" y="340" as="targetPoint"/>
                    </mxGeometry>
                </mxCell>
                <mxCell id="91" value="" style="endArrow=classic;startArrow=classic;html=1;rounded=0;entryX=0;entryY=0.5;entryDx=0;entryDy=0;exitX=0.5;exitY=1;exitDx=0;exitDy=0;" parent="1" source="87" target="89" edge="1">
                    <mxGeometry width="50" height="50" relative="1" as="geometry">
                        <mxPoint x="410" y="290" as="sourcePoint"/>
                        <mxPoint x="460" y="240" as="targetPoint"/>
                    </mxGeometry>
                </mxCell>
                <mxCell id="92" value="Модуль вывода:&lt;br&gt;1) Получает список&amp;nbsp;&lt;br&gt;2) Выводит его на консоль&lt;br&gt;3) Возвращает список" style="whiteSpace=wrap;html=1;aspect=fixed;" parent="1" vertex="1">
                    <mxGeometry x="580" y="360" width="170" height="170" as="geometry"/>
                </mxCell>
                <mxCell id="93" value="получение перем" style="text;strokeColor=none;fillColor=none;align=left;verticalAlign=middle;spacingLeft=4;spacingRight=4;overflow=hidden;points=[[0,0.5],[1,0.5]];portConstraint=eastwest;rotatable=0;" parent="1" vertex="1">
                    <mxGeometry x="422" y="270" width="106" height="30" as="geometry"/>
                </mxCell>
                <mxCell id="94" value="получ выбора" style="text;strokeColor=none;fillColor=none;align=left;verticalAlign=middle;spacingLeft=4;spacingRight=4;overflow=hidden;points=[[0,0.5],[1,0.5]];portConstraint=eastwest;rotatable=0;" parent="1" vertex="1">
                    <mxGeometry x="130" y="400" width="106" height="30" as="geometry"/>
                </mxCell>
                <mxCell id="95" value="" style="endArrow=classic;html=1;rounded=0;exitX=1.013;exitY=0.561;exitDx=0;exitDy=0;exitPerimeter=0;entryX=0;entryY=0.587;entryDx=0;entryDy=0;entryPerimeter=0;" parent="1" source="88" target="92" edge="1">
                    <mxGeometry width="50" height="50" relative="1" as="geometry">
                        <mxPoint x="410" y="370" as="sourcePoint"/>
                        <mxPoint x="460" y="320" as="targetPoint"/>
                    </mxGeometry>
                </mxCell>
                <mxCell id="96" value="" style="endArrow=classic;html=1;rounded=0;exitX=0.5;exitY=0;exitDx=0;exitDy=0;entryX=0.345;entryY=1.014;entryDx=0;entryDy=0;entryPerimeter=0;" parent="1" source="92" target="89" edge="1">
                    <mxGeometry width="50" height="50" relative="1" as="geometry">
                        <mxPoint x="410" y="350" as="sourcePoint"/>
                        <mxPoint x="460" y="300" as="targetPoint"/>
                    </mxGeometry>
                </mxCell>
                <mxCell id="97" value="Передает список для сохранения" style="text;strokeColor=none;fillColor=none;align=left;verticalAlign=middle;spacingLeft=4;spacingRight=4;overflow=hidden;points=[[0,0.5],[1,0.5]];portConstraint=eastwest;rotatable=0;" parent="1" vertex="1">
                    <mxGeometry x="650" y="320" width="190" height="30" as="geometry"/>
                </mxCell>
                <mxCell id="98" value="Всеволод" style="text;strokeColor=none;fillColor=none;align=left;verticalAlign=middle;spacingLeft=4;spacingRight=4;overflow=hidden;points=[[0,0.5],[1,0.5]];portConstraint=eastwest;rotatable=0;fontStyle=1" parent="1" vertex="1">
                    <mxGeometry x="354" y="550" width="80" height="30" as="geometry"/>
                </mxCell>
                <mxCell id="99" value="Снежанна" style="text;strokeColor=none;fillColor=none;align=left;verticalAlign=middle;spacingLeft=4;spacingRight=4;overflow=hidden;points=[[0,0.5],[1,0.5]];portConstraint=eastwest;rotatable=0;fontStyle=1" parent="1" vertex="1">
                    <mxGeometry x="720" y="100" width="80" height="30" as="geometry"/>
                </mxCell>
                <mxCell id="100" value="" style="endArrow=classic;html=1;rounded=0;exitX=0;exitY=0.5;exitDx=0;exitDy=0;entryX=0.5;entryY=0;entryDx=0;entryDy=0;" parent="1" source="89" target="88" edge="1">
                    <mxGeometry width="50" height="50" relative="1" as="geometry">
                        <mxPoint x="410" y="340" as="sourcePoint"/>
                        <mxPoint x="460" y="290" as="targetPoint"/>
                    </mxGeometry>
                </mxCell>
                <mxCell id="101" value="Александр" style="text;strokeColor=none;fillColor=none;align=left;verticalAlign=middle;spacingLeft=4;spacingRight=4;overflow=hidden;points=[[0,0.5],[1,0.5]];portConstraint=eastwest;rotatable=0;fontStyle=1" parent="1" vertex="1">
                    <mxGeometry x="550" y="40" width="80" height="30" as="geometry"/>
                </mxCell>
                <mxCell id="102" value="Илья" style="text;strokeColor=none;fillColor=none;align=left;verticalAlign=middle;spacingLeft=4;spacingRight=4;overflow=hidden;points=[[0,0.5],[1,0.5]];portConstraint=eastwest;rotatable=0;fontStyle=1" parent="1" vertex="1">
                    <mxGeometry x="250" y="180" width="80" height="30" as="geometry"/>
                </mxCell>
                <mxCell id="103" value="Анна" style="text;strokeColor=none;fillColor=none;align=left;verticalAlign=middle;spacingLeft=4;spacingRight=4;overflow=hidden;points=[[0,0.5],[1,0.5]];portConstraint=eastwest;rotatable=0;fontStyle=1" parent="1" vertex="1">
                    <mxGeometry x="750" y="390" width="80" height="30" as="geometry"/>
                </mxCell>
            </root>
        </mxGraphModel>
    </diagram>
</mxfile>
